<?xml version="1.0" encoding="UTF-8" standalone="no"?>
<!-- Generator: Adobe Illustrator 15.0.0, SVG Export Plug-In . SVG Version: 6.00 Build 0)  -->

<svg
   xmlns:dc="http://purl.org/dc/elements/1.1/"
   xmlns:cc="http://creativecommons.org/ns#"
   xmlns:rdf="http://www.w3.org/1999/02/22-rdf-syntax-ns#"
   xmlns:svg="http://www.w3.org/2000/svg"
   xmlns="http://www.w3.org/2000/svg"
   xmlns:sodipodi="http://sodipodi.sourceforge.net/DTD/sodipodi-0.dtd"
   xmlns:inkscape="http://www.inkscape.org/namespaces/inkscape"
   version="1.1"
   id="Layer_1"
   x="0px"
   y="0px"
   width="510.14462"
   height="573.40717"
   viewBox="0 0 510.14462 573.40717"
   enable-background="new 0 0 612 792"
   xml:space="preserve"
   inkscape:version="0.48.5 r10040"
   sodipodi:docname="Krasi.svg"><metadata
     id="metadata105"><rdf:RDF><cc:Work
         rdf:about=""><dc:format>image/svg+xml</dc:format><dc:type
           rdf:resource="http://purl.org/dc/dcmitype/StillImage" /><dc:title></dc:title></cc:Work></rdf:RDF></metadata><defs
     id="defs103" /><sodipodi:namedview
     pagecolor="#ffffff"
     bordercolor="#666666"
     borderopacity="1"
     objecttolerance="10"
     gridtolerance="10"
     guidetolerance="10"
     inkscape:pageopacity="0"
     inkscape:pageshadow="2"
     inkscape:window-width="1600"
     inkscape:window-height="844"
     id="namedview101"
     showgrid="false"
     fit-margin-top="0"
     fit-margin-left="0"
     fit-margin-right="0"
     fit-margin-bottom="0"
     showguides="true"
     inkscape:guide-bbox="true"
     inkscape:zoom="0.5959596"
     inkscape:cx="364.85962"
     inkscape:cy="145.45373"
     inkscape:window-x="0"
     inkscape:window-y="31"
     inkscape:window-maximized="1"
     inkscape:current-layer="Layer_1" /><path
     clip-rule="evenodd"
     d="m 256,36.057054 c 5.188,-2.494 11.026,2.953 17,3 -5.038,2.344 -11.781,-2.199 -17,-3 z"
     id="path7"
     inkscape:connector-curvature="0"
     style="fill:#ffffff;fill-rule:evenodd" /><path
     clip-rule="evenodd"
     d="m 217,73.057054 c -6.254,-1.553 -16.049,3.486 -23,9 4.212,2.821 13.888,-0.446 17,1 -1.446,2.957 -2.234,0.863 -6,2 -0.368,1.701 0.78,1.887 2,2 -6.537,4.956 -14.39,-6.882 -18,1 -2.729,0.729 -2.013,-1.987 -4,-2 0.848,-2.152 2.463,-3.537 6,-3 0.09,-2.729 -1.666,-2.013 0,-4 6.874,-2.766 18.828,-13.123 26,-6 z"
     id="path9"
     inkscape:connector-curvature="0"
     style="fill:#ffffff;fill-rule:evenodd" /><path
     clip-rule="evenodd"
     d="m 195,98.057054 c 4.504,-2.187 7.94,1.661 15,1 -3.936,2.561996 -11.145,-0.158 -15,-1 z"
     id="path11"
     inkscape:connector-curvature="0"
     style="fill:#ffffff;fill-rule:evenodd" /><path
     clip-rule="evenodd"
     d="m 194,103.05705 c 2.319,-0.319 3.839,0.161 5,1 -0.507,1.797 -6.383,3.854 -5,-1 z"
     id="path13"
     inkscape:connector-curvature="0"
     style="fill:#ffffff;fill-rule:evenodd" /><path
     clip-rule="evenodd"
     d="m 198,114.05705 c 1.386,-2.28 6.96,-0.373 10,-1 -1.731,3.965 -8.305,0.815 -10,1 z"
     id="path15"
     inkscape:connector-curvature="0"
     style="fill:#ffffff;fill-rule:evenodd" /><path
     clip-rule="evenodd"
     d="m 202,132.05705 c 2.496,0.504 3.34,2.66 6,3 -1.656,3.339 -8.118,3.788 -12,2 -0.829,-4.495 6.228,-1.106 6,-5 z"
     id="path17"
     inkscape:connector-curvature="0"
     style="fill:#ffffff;fill-rule:evenodd" /><path
     clip-rule="evenodd"
     d="m 207,148.05705 c 2.359,-2.615 8.626,-0.683 9,2 -1.453,1.547 -3.9,2.1 -7,2 1.575,-1.486 1.114,-4.468 -2,-4 z"
     id="path19"
     inkscape:connector-curvature="0"
     style="fill:#ffffff;fill-rule:evenodd" /><path
     clip-rule="evenodd"
     d="m 217,180.05705 c -2.35,0.013 0.365,2.729 2,2 -1.179,4.148 -4.958,-0.109 -8,0 4.888,-1.368 1.16,-3.741 -2,-5 3.727,-1.476 7.075,2.045 13,0 0.127,1.793 -1.224,2.109 -1,4 -1.583,-0.083 -3.814,0.481 -4,-1 z"
     id="path21"
     inkscape:connector-curvature="0"
     style="fill:#ffffff;fill-rule:evenodd" /><path
     clip-rule="evenodd"
     d="m 182,203.05705 c -1.915,2.145 -5.213,2.191 -8,1 0.745,-2.255 5.609,-0.391 8,-1 z"
     id="path23"
     inkscape:connector-curvature="0"
     style="fill:#ffffff;fill-rule:evenodd" /><path
     clip-rule="evenodd"
     d="m 348,207.05705 c 4.843,0.491 7.541,3.125 9,7 -3.404,2.515 -9.492,6.828 -15,4 1.813,-3.854 5.01,-6.324 6,-11 z"
     id="path25"
     inkscape:connector-curvature="0"
     style="fill:#ffffff;fill-rule:evenodd" /><path
     clip-rule="evenodd"
     d="m 318,210.05705 c 2.999,-3.478 10.176,1.136 7,4 -4.012,0.345 -4.852,-2.482 -7,-4 z"
     id="path27"
     inkscape:connector-curvature="0"
     style="fill:#ffffff;fill-rule:evenodd" /><path
     clip-rule="evenodd"
     d="m 467,233.05705 c 5.785,0.548 7.504,5.163 8,11 -3.81,4.073 -8.721,0.921 -14,3 -1.132,-5.273 6.341,-6.634 6,-14 z"
     id="path29"
     inkscape:connector-curvature="0"
     style="fill:#ffffff;fill-rule:evenodd" /><path
     clip-rule="evenodd"
     d="m 414,290.05705 c -11.049,-2.465 -13.747,7.372 -20,4 -1.328,2.111 0.493,2.956 -1,6 -7.766,2.091 -17.122,-1.774 -21,-9 3.322,-2.931 5.813,3.478 10,3 4.168,-0.166 3.489,-5.178 6,-7 6.361,-2.705 23.545,-4.268 26,3 z"
     id="path31"
     inkscape:connector-curvature="0"
     style="fill-rule:evenodd" /><path
     clip-rule="evenodd"
     d="m 440,293.05705 c 0.784,7.451 -3.717,9.616 -9,11 -0.451,-2.882 -3.539,-3.128 -3,-7 1.387,-3.614 7.804,-6.4 12,-4 z"
     id="path33"
     inkscape:connector-curvature="0"
     style="fill-rule:evenodd" /><path
     clip-rule="evenodd"
     d="m 413,305.05705 c -2.322,-3.345 -6.225,-5.108 -7,-10 8.2,-0.32 6.968,4.832 9,9 -1.163,-0.163 -1.779,0.221 -2,1 z"
     id="path35"
     inkscape:connector-curvature="0"
     style="fill-rule:evenodd" /><path
     clip-rule="evenodd"
     d="m 415,305.05705 c 0,1 0,2 0,3 -2.908,-1.434 -1.125,-0.767 -1,2 -2.976,-0.087 -2.676,-5.963 1,-5 z"
     id="path37"
     inkscape:connector-curvature="0"
     style="fill-rule:evenodd" /><path
     clip-rule="evenodd"
     d="m 153,349.05705 c 2.615,-0.282 4.301,0.365 4,3 -2.612,0.279 -5.004,0.338 -4,-3 z"
     id="path39"
     inkscape:connector-curvature="0"
     style="fill-rule:evenodd" /><path
     clip-rule="evenodd"
     d="m 407,373.05705 c -1.868,4.39 -7.817,-0.483 -12,0 1.234,-5.042 7.251,-0.048 12,0 z"
     id="path41"
     inkscape:connector-curvature="0"
     style="fill-rule:evenodd" /><path
     clip-rule="evenodd"
     d="m 148,372.05705 c -0.606,6.939 9.898,2.769 9,10 -4.817,-1.103 -11.185,-5.136 -9,-10 z"
     id="path43"
     inkscape:connector-curvature="0"
     style="fill-rule:evenodd" /><path
     clip-rule="evenodd"
     d="m 158,373.05705 c 1.667,0 3.333,0 5,0 0.337,3.329 4.083,3.25 4,7 -4.084,-1.249 -8.129,-2.538 -9,-7 z"
     id="path45"
     inkscape:connector-curvature="0"
     style="fill-rule:evenodd" /><path
     clip-rule="evenodd"
     d="m 179,387.05705 c -3.086,-3.914 -6.607,-7.393 -8,-13 4.359,2.642 7.567,6.433 8,13 z"
     id="path47"
     inkscape:connector-curvature="0"
     style="fill-rule:evenodd" /><path
     clip-rule="evenodd"
     d="m 176,390.05705 c 3.024,1.643 4.57,4.764 7,7 -3.122,2.746 -10.595,-2.913 -7,-7 z"
     id="path49"
     inkscape:connector-curvature="0"
     style="fill-rule:evenodd" /><path
     clip-rule="evenodd"
     d="m 159,395.05705 c -1.793,-0.127 -2.109,1.225 -4,1 0.658,1.342 2.138,1.862 4,2 -3.308,3.241 -6.947,-1.67 -10,-2 5.238,1.278 5.967,-7.803 10,-1 z"
     id="path51"
     inkscape:connector-curvature="0"
     style="fill:#ffffff;fill-rule:evenodd" /><path
     clip-rule="evenodd"
     d="m 180,401.05705 c 6.109,2.945 5.087,12.753 6,23 -4.422,-4.911 -13.356,-5.311 -17,-11 -4.672,2.578 -8.377,-0.628 -12,-2 4.646,-1.378 12.091,-2.935 17,-1 -0.248,1.086 -1.988,0.679 -2,2 3.907,2.214 7.787,1.564 11,6 -1.637,-6.754 -4.805,-11.969 -3,-17 z"
     id="path53"
     inkscape:connector-curvature="0"
     style="fill-rule:evenodd" /><path
     clip-rule="evenodd"
     d="m 146,415.05705 c -2.965,1.702 -8.233,1.1 -12,2 1.916,-4.643 8.723,-2.752 12,-2 z"
     id="path55"
     inkscape:connector-curvature="0"
     style="fill-rule:evenodd" /><path
     clip-rule="evenodd"
     d="m 148,424.05705 c 4.913,3.873 -5.553,8.899 -5,15 -2.848,-5.542 1.803,-12.177 5,-15 z"
     id="path57"
     inkscape:connector-curvature="0"
     style="fill-rule:evenodd" /><path
     clip-rule="evenodd"
     d="m 155,431.05705 c 1,0 2,0 3,0 -0.7,3.078 -0.7,1.922 0,5 -3.621,0.713 -5.179,3.488 -9,4 -0.725,-3.059 1.725,-2.941 1,-6 2.551,-0.116 5.145,-0.188 5,-3 z"
     id="path59"
     inkscape:connector-curvature="0"
     style="fill-rule:evenodd" /><path
     clip-rule="evenodd"
     d="m 400,470.05705 c -0.676,2.324 -1.8,4.2 -5,4 -0.144,-3.144 2.564,-3.436 5,-4 z"
     id="path61"
     inkscape:connector-curvature="0"
     style="fill:#ffffff;fill-rule:evenodd" /><path
     clip-rule="evenodd"
     d="m 72.999999,511.05705 c -1.273,-0.322 -3.262,-1.678 -7,-2 5.551,-6.607 16.151,-2.96 24,-8 0.479,-3.813 -4.629,-2.038 -3,-7 1.163,0.162 1.779,-0.221 2,-1 2.762,-0.428 0.938,3.729 3,4 2.981,-2.087 -1.328,-5.26 0,-9 1.778,-0.889 2.542,-2.792 6,-2 0.065,4.602 2.842001,6.491 4.000001,10 -4.079001,4.656 -5.658001,18.044 -13.000001,14 -2.261,2.739 -5.154,4.846 -7,8 -12.267,-0.063 -14.76,0.637 -23,4 -2.877,-7.212 11.284,-9.118 14,-11 z"
     id="path63"
     inkscape:connector-curvature="0"
     style="fill-rule:evenodd" /><path
     clip-rule="evenodd"
     d="m 362,573.05705 c 5.865,-19.051 15.264,-44.395 14,-64 2.635,0.302 3.282,-1.385 3,-4 -7.025,0.746 -3.878,3.329 -5,7 -6.023,-0.296 -13.028,-0.965 -18,-9 -10.135,-2.219 -14.578,-9.568 -26,-11 0.024,-6.278 -5.267,-6.629 -7,-7 1.311,0.016 1.273,2.773 0,3 -1.771,-3.078 1.183,-7.078 -2,-7 -0.156,1.177 0.172,2.839 -1,3 1.281,-8.281 -4.638,-9.362 -8,-13 -0.274,-2.933 4.007,-3.714 0,-5 -0.236,1.135 -8.719,-3.18 -7,-4 3.962,3.598 0.988,-1.847 3,-3 6.034,-0.277 15.537,-1.883 25,1 3.258,-3.742 8.206,-5.794 10,-11 -0.706,-4.627 -5.342,-5.325 -7,-9 4.657,-5.482 5.265,-5.252 14,-4 4.563,-7.313 14.564,-13.813 26,-11 0.896,-9.501 9.762,0.687 11,-5 6.223,11.211 15.528,11.487 28,9 4.812,8.656 6.288,15.695 4,28 -3.587,-2.389 -11.316,9.57 -7,9 -6.456,5.188 -12.073,7.245 -18,14 -2.263,-1.208 -4.397,-2.892 -6,0 1.991,1.009 4.271,1.729 5,4 -2.47,1.388 -6.674,4.596 -5,7 1.772,0.228 5.008,-1.008 4,2 -7.225,-1.55 -2.015,0.955 -8,2 -1.805,21.065 2.01,63.792 -8,78 -4.667,0 -9.333,0 -14,0 z m 33,-99 c 3.2,0.2 4.324,-1.676 5,-4 -2.436,0.564 -5.144,0.856 -5,4 z m -17,30 c 6.901,-0.016 -0.791,-8.401 -2,-6 2.627,2.083 0.533,4.217 2,6 z"
     id="path67"
     inkscape:connector-curvature="0"
     style="fill-rule:evenodd" /><path
     clip-rule="evenodd"
     d="m 257,23.057054 c 3.289,-4.039 1.696,7.119 -1,3 2.671,4.795 8.174,-1.64 14,0 -0.14,-2.86 -4.171,-1.829 -7,-2 2.714,-3.341 9.609,-3.014 14,-2 0.168,2.168 -3.547,0.453 -5,1 1.219,2.781 6.143,1.857 10,2 1.236,-3.236 -3.236,-0.764 -2,-4 0.89,0.777 2.258,1.075 4,1 -4.316,-3.458 -1.155,-3.173 2,-4 -3.518,-2.148 -7.574,-3.759 -9,-8 7.167,-1.8460003 21.107,0.731 28,-4.0000003 -0.551,2.217 1.909,1.424 2,3 -0.429,-4.404 5.224,-2.763 11,-2 -7.581,-7.53899996 15.625,-2.544 14,-6.99999996 22.663,-0.966 40.521,10.63600026 61,12.00000026 2.128,4.205 8.487,4.18 9,10 20.08,3.897 34.548,12.469 53,21 -0.524,7.004 9.129,12.096 18,13 -0.443,0.89 -0.878,1.789 -2,2 2.563,0.663 9.274,3.423 15,4 0.594,3.19 -1.877,3.093 0,5 12.945,4.259 19.089,25.85 21,38.999996 6.96,8.202 0.228,18.27 0,25 -9.874,1.684 -3.416,19.562 -5,30 -7.038,-1.899 -4.687,-10.572 -6,-16 -4.19,-17.314 -11.61,-34.742 -22,-45.999996 -11.447,-12.403 -27.997,-18.695 -39,-33 -3.479,-1.188 -7.152,-2.181 -8,-6 -1.667,0 -3.333,0 -5,0 -3.093,-5.688 -7.643,-8.428 -13,-7 -1.44,0.226 -0.349,2.985 -2,3 -5.056,0.055 -4.7,-5.3 -11,-4 -0.367,1.701 0.78,1.887 2,2 0.682,3.408 -4.114,-2.566 -6,-3 -2.802,0.982 1.452,2.668 -1,4 -3.039,-0.627 -8.613,1.28 -10,-1 -1.023,0.977 -2.023,1.977 -3,3 -4.458,-1.314 -17.972,0.394 -22,3 -28.329,-5.196 -54.713,-1.162 -72,14 -12.651,11.096 -14.4,29.531996 -20,47.999996 -3.639,-0.973 -0.462,4.871 -5,3 3.227,3.323 -0.651,4.179 -1,9 2.758,-4.317 1.999,1.555 1,4 -4.538,-2.03 -8.462,0.3 -11,5 1.708,2.286 3.979,-3.288 6,-4 3.15,-0.483 0.749,4.584 3,5 -11.5,13.833 -21.914,28.753 -31,45 0.553,1.78 0.514,4.153 2,5 -0.677,2.323 -3.323,2.677 -4,5 2.566,9.276 -3.683,25.139 -15,27 0.353,-1.313 1.761,-1.573 2,-3 -6.538,-2.813 -5.993,-2.379 -15,-1 -0.127,1.793 1.224,2.109 1,4 -2.358,-2.447 -1.86,1.493 -5,1 -5.319,-10.015 -12.983,-17.684 -24,-22 3.285,-1.715 7.715,-2.285 11,-4 0.424,-4.091 -6.793,-0.541 -7,-4 -2.305,1.362 -5.58,1.753 -5,6 -2,0 -4,0 -6,0 3.182,-6.27 0.544,-12.005 4,-18 -2.404,-2.828 -6.047,1.377 -8,-1 0.891,-4.775 4.09,-7.244 7,-10 -8.212,-0.588 -4.681,-16.508 -3,-20 -0.439,0.912 -0.457,-2.277 0,-2 -6.041,-3.669 0.171,1.389 -4,3 -3.476,1.343 -7.242,-1.759 -8,3 0.309,-6.507 14.831,-18.867 9,-31 7.573,-4.761 4.367,-20.299 13,-24 -1.061,-4.650996 2.735,-14.593996 6,-17.999996 0.364,-0.38 1.198,2.401 2,2 3.354,-1.679 7.796,-7.335 9,-11 8.795,-2.35 17.154,-12.208 26,-6 2.615,-0.385 2.793,-3.207 7,-2 0.551,-4.239 -4.205,-9.8 0,-16 3.438,-0.438 5.605,0.395 8,1 -2.289,-3.377 -7.325,-4.008 -12,-5 4.644,-3.689 9.235,-7.432 18,-7 -0.092,3.662 2.735,2.934 8,5 1.521,-0.944 -2.4,-4.866 -5,-5 3.805,-3.087 5.985,3.977 10,4 0.572,-1.618 -3.227,-7.405 -5,-10 3.265,-2.735 5.803,-6.197 12,-6 -0.125,-2.208 -4.242,-0.425 -6,-1 -1.089,-4.799 11.519,-1.09 8,-5 z M 174,204.05705 c 2.787,1.191 6.085,1.145 8,-1 -2.391,0.609 -7.255,-1.255 -8,1 z M 191,79.057054 c -1.666,1.987 0.09,1.271 0,4 -3.537,-0.537 -5.152,0.848 -6,3 1.987,0.013 1.271,2.729 4,2 3.61,-7.882 11.463,3.956 18,-1 -1.22,-0.113 -2.368,-0.299 -2,-2 3.766,-1.137 4.554,0.957 6,-2 -3.112,-1.446 -12.788,1.821 -17,-1 6.951,-5.514 16.746,-10.553 23,-9 -7.172,-7.123 -19.126,3.234 -26,6 z m 82,-40 c -5.974,-0.047 -11.813,-5.494 -17,-3 5.219,0.801 11.962,5.344 17,3 z m -63,60 c -7.06,0.661 -10.496,-3.187 -15,-1 3.855,0.842 11.064,3.561996 15,1 z m -11,4.999996 c -1.161,-0.839 -2.681,-1.319 -5,-1 -1.383,4.854 4.493,2.797 5,1 z m 9,9 c -3.04,0.627 -8.614,-1.28 -10,1 1.695,-0.185 8.269,2.965 10,-1 z m -12,24 c 3.882,1.788 10.344,1.339 12,-2 -2.66,-0.34 -3.504,-2.496 -6,-3 0.228,3.894 -6.829,0.505 -6,5 z m 4,7 c 3.525,2.012 11.227,0.932 12,-3 -10.936,5.612 -21.151,-4.783 -28,-2 1.332,1.001 3.018,1.648 4,3 -3.937,0.466 -5.193,-2.096 -7,1 2.755,4.375 12.677,7.271 19,1 z m 9,8 c 3.1,0.1 5.547,-0.453 7,-2 -0.374,-2.683 -6.641,-4.615 -9,-2 3.114,-0.468 3.575,2.514 2,4 z m -14,4 c -1.893,-0.841 -5.755,-4.821 -7,-3 2.284,0.45 5.052,5.525 7,3 z m 26,25 c -0.224,-1.891 1.127,-2.207 1,-4 -5.925,2.045 -9.273,-1.476 -13,0 3.16,1.259 6.888,3.632 2,5 3.042,-0.109 6.821,4.148 8,0 -1.635,0.729 -4.35,-1.987 -2,-2 0.186,1.481 2.417,0.917 4,1 z"
     id="path69"
     inkscape:connector-curvature="0"
     style="fill-rule:evenodd" /><path
     clip-rule="evenodd"
     d="m 271,15.057054 c 1.821,-4.173 5.494,-2.292 8,0 -0.223,1.429 -4.977,-0.928 -8,0 z"
     id="path71"
     inkscape:connector-curvature="0"
     style="fill-rule:evenodd" /><path
     clip-rule="evenodd"
     d="m 468,49.057054 c 3.229,-0.866 11.375,1.936 12,7 -3.145,-3.188 -7.345,-5.322 -12,-7 z"
     id="path73"
     inkscape:connector-curvature="0"
     style="fill-rule:evenodd" /><path
     clip-rule="evenodd"
     d="m 181,143.05705 c 1.807,-3.096 3.063,-0.534 7,-1 -0.982,-1.352 -2.668,-1.999 -4,-3 6.849,-2.783 17.064,7.612 28,2 -0.773,3.932 -8.475,5.012 -12,3 -6.323,6.271 -16.245,3.375 -19,-1 z"
     id="path75"
     inkscape:connector-curvature="0"
     style="fill:#ffffff;fill-rule:evenodd" /><path
     clip-rule="evenodd"
     d="m 188,153.05705 c 1.245,-1.821 5.107,2.159 7,3 -1.948,2.525 -4.716,-2.55 -7,-3 z"
     id="path77"
     inkscape:connector-curvature="0"
     style="fill:#ffffff;fill-rule:evenodd" /><path
     clip-rule="evenodd"
     d="m 388,192.05705 c 6.455,8.641 -0.406,12.278 -2,22 -2.465,0.132 -4.818,0.151 -6,-1 0,2 0,4 0,6 -1.479,-0.521 -2.521,-1.479 -4,-2 -2.18,2.091 0.5,2.854 0,6 -2.333,0 -4.667,0 -7,0 -0.867,0.739 -0.809,4.992 -2,8 -10.111,-1.145 -14.078,0.531 -27,0 1.158,-1.479 1.158,-2.521 0,-4 -5.644,0.31 -8.893,-1.773 -15,-1 3.575,-0.982 3.151,-7.068 7,-5 -10.915,-3.047 -21.067,-5.695 -35,-5 2.163,-7.837 8.435,-11.566 16,-14 1.609,2.001 -5.535,3.755 -6,7 9.12,-1.88 17.491,-4.509 24,-9 -0.31,-1.357 -2.504,-0.83 -4,-1 9.559,-4.268 28.607,-3.863 33,-5 2.162,-1.662 -3.974,-2.685 -1,-6 -0.891,0.443 -1.788,0.878 -2,2 0.28,-2.748 -0.392,-9.207 -4,-10 -13.445,-2.956 -38.435,-10.566 -53,-5 0.804,-2.53 4.116,-2.55 6,-4 -3.703,-8.647 29.477,-9.939 44,-9 13.189,0.853 29.932,0.856 37,8 1.344,1.358 3.001,6.34 4,8 2.324,3.863 3.642,6.74 2,13 -0.691,1.337 -2.667,-0.494 -5,1 z m -46,26 c 5.508,2.828 11.596,-1.485 15,-4 -1.459,-3.875 -4.157,-6.509 -9,-7 -0.99,4.676 -4.187,7.146 -6,11 z m -17,-4 c 3.176,-2.864 -4.001,-7.478 -7,-4 2.148,1.518 2.988,4.345 7,4 z"
     id="path79"
     inkscape:connector-curvature="0"
     style="fill-rule:evenodd" /><path
     clip-rule="evenodd"
     d="m 507,204.05705 c -1.313,-0.354 -1.572,-1.761 -3,-2 1.81,18.501 -2.253,31.715 -11,44 1.739,-8.371 7.144,-15.042 7,-23 -0.457,-25.382 -31.886,-14.67 -51,-24 -3.193,-4.522 1.521,-5.22 -2,-8 -0.33,-4.33 5.538,-2.462 5,-7 18.182,-1.642 34.504,3.385 45,15 1.858,-7.587 4.013,-21.713 1,-28 -0.018,-4.425 2.913,2.217 5,2 -0.808,8.792 1.998,21.77 4,31 z"
     id="path81"
     inkscape:connector-curvature="0"
     style="fill-rule:evenodd" /><path
     clip-rule="evenodd"
     d="m 482,232.05705 c -4.443,-3.556 -9.938,-6.063 -16,-8 7.818,6.185 25.407,15.187 17,28 -8.464,-5.727 -15.023,-0.013 -23,0 -1.484,0.437 0.395,1.279 0,3 -13.445,-2.371 -29.82,-14.304 -30,-30 -0.184,-16.061 15.132,-19.111 28,-16 -2.58,8.574 18.101,13.645 24,23 z m -21,15 c 5.279,-2.079 10.19,1.073 14,-3 -0.496,-5.837 -2.215,-10.452 -8,-11 0.341,7.366 -7.132,8.727 -6,14 z"
     id="path83"
     inkscape:connector-curvature="0"
     style="fill-rule:evenodd" /><path
     clip-rule="evenodd"
     d="m 174,255.05705 c 1.146,-8.521 6.856,-12.477 14,-15 1.347,3.019 1.347,7.98 0,11 -6.57,-0.57 -9.055,2.945 -12,6 -2.806,-0.013 2.381,-2.729 -2,-2 z"
     id="path85"
     inkscape:connector-curvature="0"
     style="fill-rule:evenodd" /><path
     clip-rule="evenodd"
     d="m 382,340.05705 c -1.172,0.161 -0.844,1.823 -1,3 -3.096,-1.614 -3.884,-0.866 -6,-2 -2.768,-1.942 6.11,1.6 5,-2 1.615,-0.282 1.722,0.945 3,1 -0.19,1.135 -1.003,0.556 -1,0 z"
     id="path87"
     inkscape:connector-curvature="0"
     style="fill:#ffffff;fill-rule:evenodd" /><path
     clip-rule="evenodd"
     d="m 165,374.05705 c 0.353,-1.567 1.761,0.875 2,-1 2.113,1.22 2.807,3.859 4,6 -3.983,0.316 -2.708,-4.625 -6,-5 z"
     id="path89"
     inkscape:connector-curvature="0"
     style="fill-rule:evenodd" /><path
     clip-rule="evenodd"
     d="m 150,383.05705 c 3.83,0.189 13.198,3.454 15,9 0.89,-0.776 2.258,-1.075 4,-1 0.334,2.333 1.025,4.309 3,5 -4.271,2.897 -5.77,-5.533 -11,-5 -2.671,2.415 4.94,3.002 5,6 -2.007,0.34 -3.129,-0.205 -3,-2 -3.06,3.126 3.709,4.907 6,6 1.484,-0.437 -0.395,-1.279 0,-3 1.479,0.521 2.521,1.479 4,2 -4.118,1.957 2.239,3.133 3,6 -3.113,1.539 -16.152,-3.601 -19,3 -2.409,0.409 -2.174,-1.826 -5,-1 1.5,-2.326 2.445,-1.526 5,-1 -6.386,-1.048 -16.104,-2.683 -21,-8 0.911,-2.117 4.019,1.887 7,1 -2.779,-2.554 -5.991,-4.676 -9,-7 3.621,-2.685 11.934,-2.773 15,-1 1.927,-0.406 0.79,-3.877 4,-3 -1.447,-1.553 -1.333,-4.666 -3,-6 z m -1,13 c 3.053,0.33 6.692,5.241 10,2 -1.862,-0.138 -3.342,-0.658 -4,-2 1.891,0.225 2.207,-1.127 4,-1 -4.033,-6.803 -4.762,2.278 -10,1 z"
     id="path91"
     inkscape:connector-curvature="0"
     style="fill-rule:evenodd" /><path
     clip-rule="evenodd"
     d="m 376,498.05705 c 1.209,-2.401 8.901,5.984 2,6 -1.467,-1.783 0.627,-3.917 -2,-6 z"
     id="path93"
     inkscape:connector-curvature="0"
     style="fill:#ffffff;fill-rule:evenodd" /><path
     clip-rule="evenodd"
     d="m 405,337.05705 c 0.022,2.355 -1.723,2.944 -1,6 8.373,7.337 18.265,7.025 30,11 1.778,5.222 10.807,3.193 9,12 -19.397,-8.891 -50.537,-20.938 -76,-17 -6.903,1.067 -14.422,7.151 -22,1 -4.021,1.979 -4.516,7.484 -12,6 -5.305,-10.438 6.74,-19.224 15,-19 2.391,0.064 4.431,2.5 7,3 17.349,3.374 34.419,-11.213 50,-3 z m -22,3 c -1.278,-0.055 -1.385,-1.282 -3,-1 1.11,3.6 -7.768,0.058 -5,2 2.116,1.134 2.904,0.386 6,2 0.156,-1.177 -0.172,-2.839 1,-3 -0.003,0.556 0.81,1.135 1,0 z"
     id="path95"
     inkscape:connector-curvature="0"
     style="fill-rule:evenodd" /><path
     clip-rule="evenodd"
     d="m 188,368.05705 c -5.34,-1.069 0.129,2.483 -4,2 2.29,3.867 4.259,3.43 4,7 -4.253,0.413 -2.847,6.486 -3,11 -6.284,-6.383 -9.846,-15.487 -16,-22 -0.89,0.776 -2.258,1.075 -4,1 -0.368,1.701 0.78,1.887 2,2 -2.388,2.322 -9.852,1.234 -9,-3 4.657,-1.206 5.523,-2.327 11,-1 -2.197,-2.803 -7.72,-2.28 -10,-5 9.014,-1.473 16.937,6.777 26,6 -1.537,-3.865 -6.735,-3.763 -12,-6 -0.086,-1.419 -0.165,-2.832 1,-3 -0.147,-2.187 -2.52,-2.147 -5,-2 -0.467,2.134 1.429,1.904 3,2 -1.002,3.967 -4.036,-0.158 -6,-1 2.452,-1.332 -1.802,-3.019 1,-4 -2.273,-2.708 -3.863,-3.123 -8,-2 2.548,-5.675 7.209,-1.362 13,-1 2.35,-0.013 -0.365,-2.729 -2,-2 0.14,-2.86 4.171,-1.829 7,-2 -0.841,-2.492 -1.309,-5.357 -1,-9 3.501,2.201 3.053,-1.385 4,-3 3.047,1.438 3.723,6.141 1,9 2.54,2.127 4.818,4.515 5,9 -3.42,-1.321 2.955,11.043 2,17 z"
     id="path97"
     inkscape:connector-curvature="0"
     style="fill-rule:evenodd" /><path
     clip-rule="evenodd"
     d="M -1.0284145e-6,571.05705 C 12.168999,569.85205 22.191999,553.68405 34.999999,547.05705 c 2.44,-1.263 5.583,-0.865 8,-2 20.106,-9.442 34.562,-29.049 58.000001,-30 0.332,-3.998 -1.783001,-5.551 -1.000001,-10 3.911001,-12.486 20.673001,-11.009 22.000001,-23 1.165,-1.666 -6.542,3.76 -9,5 -0.421,-1.912 -0.362,-4.305 -3,-4 -2.711,0.956 0.943,8.276 -3,8 -3.817,-1.858 0.051,-6.194 -1,-7 -6.282001,4.209 -13.784001,-6.587 -21.000001,-8 7.021,-1.865 6.737,-7.048 15,-6 4.369001,-17.948 -2.784,-30.39 13.000001,-30 -0.775,2.559 -6.445,0.222 -6,4 6.18,-1.419 8.492,-1.968 17,-2 0.542,-5.252 -5.802,1.052 -6,-2 0.416,-2.251 5.483,0.149 5,-3 -6.854,-5.201 -17.443,-3.937 -26.000001,-9 4.640001,-3.693 14.628001,-2.039 17.000001,-8 -8.661,-2.625 -14.603001,5.757 -19.000001,1 6.672001,-5.796 16.596001,-6.063 27.000001,-6 0.195,4.471 4.033,5.3 6,8 4.405,-3.144 14.124,-5.624 22,-4 -6.649,6.351 -12.561,13.438 -14,25 -1.933,-0.64 -8.205,-5.665 -7,-3 7.944,2.667 6.674,8.535 9,17 -2.706,9.294 -11.234,12.766 -14,22 4.928,-1.89 7.422,-1.723 14,-3 0,-2.667 0,-5.333 0,-8 10.042,-8.444 11.383,-23.24 21,-30 0.504,2.496 2.66,3.34 3,6 2.759,-0.908 7.022,-0.311 9,-2 -6.063,-5.831 -2.949,-10.895 -5,-22 -3.133,-0.2 -5.522,5.447 -7,1 2.488,-2.732 4.476,-5.28 10,-5 15.911,0.807 18.089,16.058 23,29 2.633,6.939 9.868,12.311 15,19 9.646,12.571 15.816,26.746 22,36 3.708,2.964 8.32,10.078 14,14 3.389,9.771 6.718,13.989 14,21 1.894,4.983 5.785,11.454 10,11 -3.834,4.048 5.443,7.473 2,11 -1.003,0.003 -1.19,-0.81 -2,-1 -0.367,4.193 3.257,0.714 5,1 -0.13,7.54 4.319,5.625 6,10 -3.933,-1.266 -2.975,2.358 -3,5 -66.313,0 -137.223,0 -207.000001,0 -22.17,0 -52.517,1.588 -68.0000000284145,-2 z"
     id="path99"
     inkscape:connector-curvature="0"
     style="fill-rule:evenodd" /></svg>