<?xml version="1.0" standalone="no"?>
<!DOCTYPE svg PUBLIC "-//W3C//DTD SVG 20010904//EN"
 "http://www.w3.org/TR/2001/REC-SVG-20010904/DTD/svg10.dtd">
<svg version="1.0" xmlns="http://www.w3.org/2000/svg"
 width="573.000000pt" height="573.000000pt" viewBox="0 0 573.000000 573.000000"
 preserveAspectRatio="xMidYMid meet">
<metadata>
Created by potrace 1.11, written by Peter Selinger 2001-2013
</metadata>
<g transform="translate(0.000000,573.000000) scale(0.100000,-0.100000)"
fill="#000000" stroke="none">
<path d="M3627 5723 c-4 -6 -36 -13 -72 -16 -78 -7 -91 -13 -73 -34 11 -14 7
-15 -31 -9 -25 3 -52 1 -64 -6 -16 -8 -22 -8 -25 0 -3 9 -9 9 -23 1 -11 -5
-50 -12 -87 -15 -149 -10 -171 -14 -165 -30 3 -8 21 -26 40 -39 32 -21 33 -24
16 -34 -16 -9 -16 -12 -3 -22 12 -9 11 -10 -7 -6 -13 3 -23 1 -23 -4 0 -5 5
-9 10 -9 6 0 10 -4 10 -10 0 -5 -18 -10 -39 -10 -42 0 -69 19 -29 21 22 0 22
1 3 8 -24 10 -96 4 -108 -8 -4 -4 6 -11 24 -15 38 -7 36 -12 -11 -19 -19 -3
-48 -8 -63 -12 -26 -5 -27 -4 -17 16 9 16 9 24 -1 33 -9 8 -11 7 -6 -6 5 -13
1 -18 -13 -19 -11 -1 -24 -3 -30 -4 -5 -1 -17 -3 -25 -4 -27 -2 -16 -21 13
-22 26 -1 26 -1 -8 -16 -19 -8 -45 -24 -57 -35 l-22 -21 24 -42 c14 -23 25
-45 25 -48 0 -12 -18 -8 -32 6 -19 20 -58 39 -58 30 0 -5 9 -14 20 -21 11 -7
20 -16 20 -21 0 -14 -63 6 -76 24 -19 26 -89 13 -146 -27 -26 -18 -38 -41 -20
-36 15 4 71 -14 81 -26 8 -9 2 -11 -24 -8 -40 5 -58 -20 -50 -70 3 -18 8 -44
10 -58 4 -22 -1 -27 -32 -37 -24 -7 -44 -8 -55 -2 -30 16 -64 10 -150 -31 -52
-24 -92 -50 -103 -66 -36 -55 -68 -84 -86 -79 -23 8 -57 -55 -65 -119 -4 -28
-15 -53 -29 -66 -14 -13 -32 -54 -46 -101 -13 -44 -30 -87 -39 -97 -13 -14
-16 -31 -12 -73 4 -49 0 -62 -42 -141 -25 -49 -46 -89 -46 -91 0 -1 18 -1 40
1 36 4 45 11 41 35 -1 5 4 7 11 4 7 -2 12 -15 11 -28 -17 -157 -17 -149 7
-182 15 -19 19 -32 12 -35 -17 -5 -54 -70 -47 -82 3 -5 17 -7 30 -4 35 9 45
-2 35 -34 -5 -15 -11 -47 -14 -72 -2 -25 -8 -53 -11 -62 -6 -15 -2 -18 24 -18
20 0 31 5 31 14 0 24 39 46 64 36 11 -5 30 -11 40 -15 19 -6 19 -6 0 -19 -10
-7 -34 -17 -51 -21 -43 -9 -41 -18 7 -40 47 -21 130 -100 166 -156 25 -40 38
-47 49 -29 4 6 10 8 15 5 4 -3 6 4 3 15 -3 11 -4 20 -2 21 51 8 100 8 123 0
24 -10 26 -14 16 -26 -11 -14 -9 -14 16 -5 70 27 127 120 126 210 0 38 6 62
19 78 14 19 16 28 7 47 -9 20 -3 35 41 109 52 85 153 230 222 318 25 32 36 54
32 68 -8 31 -24 35 -44 12 -9 -12 -23 -22 -31 -22 -7 0 2 14 20 30 24 22 39
29 56 24 18 -4 25 -1 30 18 9 34 7 45 -5 28 -9 -12 -10 -11 -4 5 3 11 9 32 12
47 3 15 15 37 26 49 13 14 34 70 53 143 44 165 69 227 114 287 75 100 231 185
379 207 59 9 293 9 346 0 24 -4 59 -1 90 7 28 8 77 16 110 17 33 1 66 6 73 11
6 5 38 10 70 11 37 1 57 5 58 14 1 6 2 15 3 19 0 3 10 -2 21 -12 11 -10 20
-13 20 -7 0 18 32 14 65 -8 36 -24 55 -25 55 -5 0 10 11 15 35 15 26 0 45 -9
74 -35 21 -19 48 -35 59 -35 12 0 26 -9 32 -19 5 -11 20 -23 32 -27 13 -4 55
-36 93 -73 39 -36 106 -92 150 -123 90 -63 111 -80 175 -143 102 -99 215 -350
234 -518 6 -64 18 -92 41 -100 13 -6 15 11 12 124 -2 131 -2 131 24 152 15 12
30 38 35 57 4 19 10 42 12 50 12 44 8 114 -8 148 -10 20 -26 70 -34 110 -28
130 -91 237 -168 285 -18 11 -25 22 -21 35 4 16 -6 22 -67 38 -47 12 -69 22
-66 30 3 8 -8 15 -27 20 -66 14 -117 47 -135 87 -15 34 -29 44 -128 91 -134
65 -270 120 -344 140 -41 11 -68 27 -108 64 -45 44 -60 51 -115 61 -93 16
-137 28 -272 71 -91 28 -268 49 -278 33z"/>
<path d="M3026 5592 c-3 -6 10 -12 29 -14 22 -2 34 0 32 6 -5 14 -53 20 -61 8z"/>
<path d="M5035 5218 c22 -11 49 -28 59 -37 18 -15 18 -15 8 5 -6 12 -27 29
-46 38 -50 23 -68 19 -21 -6z"/>
<path d="M3687 4114 c-1 -1 -42 -4 -92 -8 -98 -6 -111 -8 -174 -27 -30 -9 -43
-19 -47 -36 -4 -13 -20 -31 -36 -39 -39 -20 -31 -26 18 -13 54 16 185 5 335
-26 159 -34 170 -39 186 -94 7 -24 18 -50 24 -57 7 -8 10 -16 8 -18 -5 -6 -66
-13 -162 -21 -75 -6 -183 -32 -142 -34 17 -1 16 -4 -10 -22 -38 -25 -64 -36
-142 -59 -48 -14 -63 -16 -63 -6 0 7 11 18 25 24 38 18 30 32 -11 19 -41 -12
-108 -73 -116 -105 -6 -21 -2 -22 60 -24 37 0 72 -2 77 -3 21 -3 110 -19 115
-20 3 -1 20 -5 38 -9 l32 -8 -21 -29 -20 -29 43 -1 c71 -2 103 -12 100 -32 -3
-15 9 -17 132 -15 l135 2 8 36 c8 32 12 35 47 38 34 3 37 6 32 26 -7 29 2 38
25 25 17 -8 19 -6 19 20 0 28 2 30 29 25 28 -6 29 -4 52 62 28 82 29 91 13
125 -15 29 -10 39 18 39 12 0 19 8 20 23 0 12 2 29 3 37 2 20 -52 129 -78 157
-20 23 -86 48 -147 57 -53 8 -328 24 -333 20z"/>
<path d="M5296 3998 c14 -65 -5 -248 -25 -248 -5 0 -14 7 -22 16 -59 71 -211
126 -350 126 -47 0 -60 -4 -87 -28 -28 -26 -30 -33 -25 -71 4 -28 13 -47 27
-56 23 -15 107 -33 196 -43 166 -17 227 -38 265 -88 39 -52 40 -113 5 -215
-36 -106 -37 -119 -6 -64 25 43 69 153 62 153 -3 0 0 15 5 33 5 17 10 69 10
115 1 74 2 82 16 70 14 -11 15 -10 10 7 -13 43 -37 202 -37 246 0 32 -6 51
-18 62 -27 25 -34 21 -26 -15z"/>
<path d="M4700 3628 c-59 -31 -82 -65 -88 -132 -5 -68 26 -142 86 -202 63 -63
224 -140 209 -100 -4 10 3 16 24 20 16 3 44 9 62 13 52 11 80 10 114 -3 30
-12 32 -11 43 16 25 61 -21 140 -123 208 -56 37 -37 38 34 2 81 -41 59 -15
-46 54 -93 61 -125 91 -125 117 0 22 -20 29 -89 29 -39 0 -70 -7 -101 -22z"/>
<path d="M2135 3304 c-21 -14 -46 -35 -56 -47 -23 -28 -34 -70 -20 -75 6 -2 8
-8 5 -14 -3 -5 13 4 36 21 24 17 53 31 66 31 14 0 25 8 29 21 8 24 -2 89 -14
89 -5 0 -25 -12 -46 -26z"/>
<path d="M4275 2879 c-76 -10 -92 -17 -105 -49 -17 -40 -43 -46 -86 -19 -37
22 -62 16 -41 -11 34 -45 120 -80 172 -70 23 4 30 10 30 29 0 19 6 25 30 28
17 2 45 13 64 24 19 11 51 21 73 22 37 1 37 2 20 19 -23 23 -94 35 -157 27z"/>
<path d="M4615 2788 c-29 -23 -31 -44 -7 -76 17 -22 17 -22 52 -3 34 18 62 72
46 88 -15 15 -67 10 -91 -9z"/>
<path d="M4370 2771 c0 -17 65 -88 77 -84 15 5 -3 63 -25 81 -18 14 -52 16
-52 3z"/>
<path d="M4433 2665 c-8 -22 6 -33 17 -15 13 20 12 30 0 30 -6 0 -13 -7 -17
-15z"/>
<path d="M2104 2387 c-3 -9 -13 -17 -21 -17 -13 0 -15 -9 -11 -45 5 -44 5 -45
-23 -45 -30 0 -48 -15 -27 -23 31 -11 -2 -15 -40 -5 -23 6 -48 8 -57 4 -21 -8
-19 -29 3 -22 24 8 40 -5 44 -34 5 -36 16 -50 41 -50 20 0 20 0 1 15 -18 15
-18 15 6 13 19 -2 24 -8 22 -25 -2 -17 6 -24 47 -38 49 -16 69 -30 57 -42 -5
-5 -91 19 -131 37 -37 17 -95 28 -100 20 -3 -4 13 -15 35 -24 22 -9 40 -17 40
-19 0 -2 -12 -3 -27 -3 -60 -1 -73 -4 -73 -19 0 -19 43 -40 64 -32 9 4 13 12
11 19 -3 8 4 13 18 14 19 1 37 -18 98 -107 l74 -109 5 52 c3 28 11 53 18 56
18 6 14 27 -8 47 l-20 18 22 24 c20 22 21 26 9 74 -7 28 -15 73 -17 100 -2 32
-11 57 -23 71 -13 13 -17 26 -12 32 10 13 4 57 -9 70 -6 6 -12 3 -16 -7z"/>
<path d="M4095 2359 c-123 -31 -226 -36 -265 -14 -34 19 -67 18 -117 -5 -54
-24 -84 -71 -81 -125 3 -35 6 -40 30 -43 16 -2 34 4 45 15 44 42 48 44 84 30
41 -16 60 -15 130 8 58 20 231 26 319 11 112 -18 277 -70 418 -130 l82 -35 0
24 c0 14 -10 31 -26 42 -14 10 -37 27 -52 39 -15 11 -65 31 -112 43 -105 27
-137 39 -173 64 -23 16 -28 25 -25 49 4 25 0 31 -21 40 -48 19 -125 15 -236
-13z"/>
<path d="M1842 2228 c3 -7 13 -15 22 -16 12 -3 17 1 14 10 -3 7 -13 15 -22 16
-12 3 -17 -1 -14 -10z"/>
<path d="M4260 2011 c0 -11 96 -30 110 -21 7 5 -1 12 -21 19 -38 13 -89 15
-89 2z"/>
<path d="M1903 2002 c-19 -12 9 -47 47 -60 38 -14 38 -5 1 36 -33 36 -31 35
-48 24z"/>
<path d="M1982 1969 c18 -24 24 -27 26 -14 4 19 -15 45 -35 45 -10 0 -7 -8 9
-31z"/>
<path d="M1794 1974 c3 -9 6 -17 6 -20 0 -2 18 -13 40 -24 22 -11 40 -17 40
-13 0 17 -18 34 -54 52 -31 16 -37 17 -32 5z"/>
<path d="M2027 1972 c7 -19 62 -102 68 -102 7 0 -13 58 -30 83 -20 31 -47 44
-38 19z"/>
<path d="M1820 1896 c0 -3 4 -15 9 -29 7 -19 5 -26 -12 -37 -12 -8 -26 -13
-32 -11 -15 5 -87 2 -107 -5 -27 -8 -22 -21 17 -46 41 -27 46 -42 9 -27 -15 5
-29 8 -31 5 -9 -8 54 -45 107 -62 30 -10 61 -24 68 -31 17 -17 22 -16 45 5 15
13 35 17 99 15 l80 -2 -22 24 c-12 13 -19 28 -16 33 3 5 -3 12 -14 15 -13 3
-20 0 -20 -9 0 -12 -4 -12 -29 1 -39 20 -52 39 -20 31 23 -7 23 -6 -3 16 -32
27 -35 38 -12 38 28 0 9 24 -42 52 -45 25 -74 34 -74 24z"/>
<path d="M2064 1816 c-9 -24 27 -59 55 -54 21 3 20 5 -13 37 -31 30 -36 32
-42 17z"/>
<path d="M1960 1812 c0 -15 36 -42 54 -42 16 0 16 1 2 16 -9 8 -16 20 -16 25
0 5 -9 9 -20 9 -11 0 -20 -4 -20 -8z"/>
<path d="M2107 1706 c-5 -13 16 -117 28 -135 2 -4 -21 4 -50 18 -30 14 -50 28
-44 32 28 17 -65 24 -126 9 l-30 -7 36 -16 c20 -9 46 -13 58 -10 13 3 26 2 30
-4 3 -5 16 -16 28 -24 21 -15 20 -15 -30 -11 -46 4 -57 1 -82 -20 -35 -31 -26
-56 11 -32 13 9 27 15 29 12 3 -3 7 -31 10 -64 7 -84 15 -117 32 -136 13 -14
12 -17 -4 -22 -56 -17 -70 -14 -87 16 l-18 30 -25 -24 c-14 -13 -48 -65 -76
-117 -28 -52 -63 -109 -79 -126 -21 -25 -28 -43 -28 -74 0 -33 -4 -41 -18 -41
-10 0 -41 -6 -69 -13 l-51 -13 9 25 c5 14 25 44 45 66 62 70 87 120 78 157 -4
18 -9 39 -10 47 -6 35 -27 69 -50 81 -13 8 -22 15 -20 18 3 2 19 -6 35 -18 17
-12 32 -17 32 -11 1 6 2 14 4 19 14 53 21 70 41 106 13 22 37 56 53 75 16 19
28 38 25 42 -11 18 -158 -7 -190 -32 -11 -9 -74 45 -74 62 0 14 -119 10 -177
-5 -28 -8 -62 -21 -74 -30 -20 -13 -20 -16 -6 -22 9 -3 40 0 69 7 67 17 90 17
95 2 5 -14 -25 -28 -96 -47 -81 -20 -62 -36 84 -71 75 -18 119 -40 110 -55 -4
-6 -15 -10 -26 -10 -11 0 -18 -4 -15 -9 3 -4 18 -6 32 -3 19 3 25 1 20 -7 -4
-6 -26 -11 -49 -11 -23 0 -59 -4 -79 -9 -47 -11 -51 5 -5 18 23 7 26 9 10 10
-38 2 -69 -16 -81 -46 -6 -15 -13 -68 -17 -118 -8 -122 -12 -132 -41 -132 -13
0 -44 -14 -70 -30 l-45 -30 71 -43 c40 -24 84 -43 99 -43 24 0 28 -4 29 -30 1
-33 6 -42 21 -32 6 3 11 22 11 41 0 37 15 44 35 17 11 -15 15 -15 49 6 20 13
39 22 41 19 10 -9 -28 -65 -58 -84 -17 -11 -51 -33 -75 -48 -63 -40 -84 -79
-77 -143 5 -50 4 -53 -17 -54 -99 -3 -175 -39 -373 -179 -116 -82 -177 -116
-217 -124 -32 -5 -97 -39 -123 -63 -121 -111 -220 -183 -251 -183 -30 0 -9
-10 37 -17 24 -4 638 -8 1364 -8 l1319 0 6 25 c4 14 13 24 20 22 7 -2 -1 13
-19 33 -17 20 -31 43 -31 52 0 10 -6 14 -20 10 -11 -3 -23 0 -27 5 -3 6 -1 8
5 4 21 -13 22 13 1 48 -12 20 -18 43 -15 52 3 8 2 12 -3 9 -13 -7 -56 37 -77
78 -9 18 -37 55 -62 82 -25 28 -56 73 -69 101 -13 30 -54 84 -96 126 -48 50
-92 110 -131 179 -88 154 -135 226 -207 309 -82 95 -90 108 -124 205 -16 44
-38 96 -49 115 -21 37 -65 80 -80 80 -5 0 -7 3 -4 6 4 3 24 -6 47 -20 22 -14
43 -26 46 -26 6 0 -1 92 -10 152 -8 43 -39 78 -48 54z"/>
<path d="M1660 1575 c-11 -13 -6 -14 31 -9 67 9 83 23 28 24 -29 0 -51 -6 -59
-15z"/>
<path d="M4093 1519 c-13 -5 -23 -14 -23 -22 0 -9 -16 -13 -57 -12 -68 0 -133
-29 -174 -78 -23 -28 -31 -31 -71 -28 -36 2 -51 -3 -74 -23 l-29 -25 38 -39
c35 -36 38 -42 27 -63 -7 -13 -30 -40 -52 -60 -38 -35 -41 -36 -81 -27 -31 7
-186 6 -214 -1 -2 -1 -3 -10 -3 -22 0 -13 -4 -18 -12 -14 -7 4 -4 -1 7 -10 11
-9 30 -18 43 -22 19 -4 22 -10 18 -29 -5 -18 1 -29 29 -51 23 -18 37 -40 41
-61 5 -24 9 -30 15 -20 7 10 9 10 10 -2 1 -8 0 -24 -1 -35 -2 -16 0 -17 13 -6
20 16 55 -4 63 -36 4 -13 13 -23 22 -23 28 0 242 -113 278 -146 20 -20 50 -36
72 -39 20 -4 45 -9 55 -12 13 -3 17 2 17 26 0 17 4 31 9 31 5 0 16 3 25 6 20
8 22 -22 2 -33 -9 -5 -15 -29 -17 -68 -1 -33 -6 -76 -10 -95 -4 -19 -10 -51
-13 -70 -5 -36 -38 -155 -82 -295 -14 -44 -27 -87 -29 -96 -5 -13 6 -16 66
-16 l71 0 18 41 c36 84 47 194 54 530 4 194 5 200 27 217 13 9 31 16 41 14 10
-2 18 0 18 6 0 5 -9 9 -20 9 -29 0 -25 34 7 55 l27 18 -28 22 c-30 24 -21 44
12 26 15 -8 24 -5 43 15 12 13 51 43 85 66 47 32 64 49 68 72 7 32 52 80 67
70 10 -6 11 3 14 89 3 56 -12 123 -35 167 -10 18 -17 19 -73 14 -86 -8 -137 8
-183 56 -22 23 -41 35 -44 30 -4 -7 -15 -8 -31 -2 -13 5 -34 6 -46 1z"/>
<path d="M1778 1479 c-18 -10 -52 -91 -46 -110 5 -16 70 86 66 105 -2 11 -8
12 -20 5z"/>
<path d="M1846 1405 c-10 -8 -22 -16 -27 -17 -4 -2 -11 -16 -14 -31 l-7 -28
45 22 c34 17 45 27 45 45 0 27 -14 30 -42 9z"/>
<path d="M1246 864 c-15 -11 -17 -21 -12 -54 6 -39 -6 -56 -18 -25 -8 21 -36
19 -36 -4 0 -10 7 -24 15 -31 21 -18 19 -26 -12 -39 -31 -12 -45 -16 -118 -25
-28 -4 -61 -15 -74 -25 l-24 -18 34 -7 c38 -7 32 -16 -30 -40 -51 -20 -71 -38
-71 -64 0 -18 1 -19 54 -1 29 10 81 19 114 20 58 2 63 4 93 40 23 28 40 39 60
39 31 0 37 6 78 85 l30 60 -22 47 c-25 54 -36 61 -61 42z"/>
</g>
</svg>
